<?xml version="1.0" encoding="iso-8859-1"?>
<!-- Generator: Adobe Illustrator 23.0.2, SVG Export Plug-In . SVG Version: 6.00 Build 0)  -->
<svg version="1.1" id="Layer_1" xmlns="http://www.w3.org/2000/svg" xmlns:xlink="http://www.w3.org/1999/xlink" x="0px" y="0px"
	 viewBox="0 0 718.626 416.291" style="enable-background:new 0 0 718.626 416.291;" xml:space="preserve">
<g>
	<path style="fill:#548F9C;" d="M572.524,167.353L366.002,16.141c-3.985-2.911-9.392-2.911-13.377,0L146.103,167.353
		c-5.043,3.696-6.138,10.779-2.446,15.822c3.696,5.044,10.779,6.138,15.822,2.446L359.313,39.307l199.835,146.314
		c2.012,1.476,4.357,2.185,6.679,2.185c3.483,0,6.922-1.604,9.138-4.631C578.662,178.132,577.567,171.049,572.524,167.353
		L572.524,167.353z M572.524,167.353"/>
	<path style="fill:#548F9C;" d="M517.795,188.183c-6.249,0-11.32,5.07-11.32,11.32V379.69h-90.559v-98.354
		c0-31.215-25.396-56.606-56.606-56.606s-56.606,25.396-56.606,56.606v98.354h-90.559V199.507c0-6.254-5.07-11.324-11.32-11.324
		c-6.248,0-11.319,5.07-11.319,11.324v191.507c0,6.249,5.071,11.319,11.319,11.319h113.203c5.952,0,10.823-4.6,11.274-10.437
		c0.027-0.266,0.044-0.554,0.044-0.882V281.335c0-18.73,15.233-33.967,33.963-33.967c18.73,0,33.967,15.238,33.967,33.967v109.679
		c0,0.323,0.017,0.607,0.044,0.868c0.443,5.847,5.318,10.451,11.274,10.451h113.198c6.253,0,11.323-5.069,11.323-11.319V199.507
		C529.114,193.253,524.048,188.183,517.795,188.183L517.795,188.183z M517.795,188.183"/>
</g>
</svg>
