<?xml version="1.0" encoding="iso-8859-1"?>
<!-- Generator: Adobe Illustrator 23.0.2, SVG Export Plug-In . SVG Version: 6.00 Build 0)  -->
<svg version="1.1" id="Layer_1" xmlns="http://www.w3.org/2000/svg" xmlns:xlink="http://www.w3.org/1999/xlink" x="0px" y="0px"
	 viewBox="0 0 718.626 416.291" style="enable-background:new 0 0 718.626 416.291;" xml:space="preserve">
<g>
	<path style="fill:#548F9C;" d="M519.177,180.733c-12.328-33.516-35.356-56.836-64.842-65.669
		c-28.426-8.511-59.322-2.364-86.917,16.819c-2.096-10.334-5.886-20.058-11.07-28.867c14.214-1.529,27.772-7.813,38.153-18.191
		c15.968-15.971,22.264-39.453,16.429-61.284c-0.903-3.369-3.534-6.004-6.907-6.903c-21.83-5.839-45.312,0.457-61.285,16.425
		c-10.208,10.212-16.456,23.497-18.115,37.456c-14.408-8.947-31.393-14.124-49.567-14.124c-5.386,0-9.755,4.369-9.755,9.755
		c0,5.39,4.369,9.755,9.755,9.755c33.418,0,61.777,22.047,71.307,52.36c-26.33-16.634-55.283-21.626-82.075-13.601
		c-29.481,8.829-52.51,32.153-64.842,65.666c-11.965,32.535-12.403,70.992-1.234,108.294c11.174,37.306,32.682,69.195,60.559,89.793
		c28.726,21.22,60.78,28.044,90.266,19.211c3.325-0.992,6.615-2.198,9.823-3.593c3.502,1.567,7.096,2.908,10.724,3.995
		c8.415,2.522,17.035,3.762,25.73,3.762c21.776,0,44.004-7.813,64.535-22.977c27.878-20.598,49.386-52.487,60.559-89.79
		C531.583,251.726,531.146,213.265,519.177,180.733L519.177,180.733z M344.027,83.537c-1.703-13.376,2.844-27.015,12.509-36.68
		c9.664-9.66,23.305-14.211,36.676-12.509c1.707,13.379-2.844,27.019-12.505,36.68C371.042,80.693,357.402,85.24,344.027,83.537
		L344.027,83.537z M501.723,283.43c-9.971,33.288-28.958,61.591-53.463,79.699c-23.663,17.481-49.619,23.241-73.077,16.212
		c-4.022-1.201-7.993-2.805-11.796-4.767c-1.403-0.717-2.931-1.079-4.464-1.079c-1.497,0-2.994,0.342-4.365,1.032
		c-3.577,1.792-7.32,3.278-11.118,4.417c-49.489,14.825-106.258-28.206-126.536-95.916c-20.279-67.706,3.491-134.853,52.983-149.674
		c26.964-8.077,57.238,0.839,83.063,24.459c1.738,1.592,4.047,2.576,6.592,2.576c2.698,0,5.141-1.098,6.906-2.871
		c25.653-23.084,55.623-31.752,82.292-23.766C498.232,148.577,522.002,215.724,501.723,283.43L501.723,283.43z M501.723,283.43"/>
	<path style="fill:#548F9C;" d="M285.646,151.98c-1.544-5.161-6.982-8.092-12.143-6.544c-20.81,6.233-37.417,24.789-45.56,50.911
		c-7.837,25.147-7.466,54.645,1.044,83.063c1.265,4.228,5.142,6.958,9.342,6.958c0.926,0,1.867-0.134,2.801-0.41
		c5.161-1.548,8.093-6.985,6.544-12.143c-7.3-24.376-7.702-50.497-1.106-71.661c6.272-20.118,17.824-33.627,32.535-38.031
		C284.264,162.578,287.195,157.142,285.646,151.98L285.646,151.98z M285.646,151.98"/>
</g>
</svg>
