<?xml version="1.0" encoding="iso-8859-1"?>
<!-- Generator: Adobe Illustrator 23.0.2, SVG Export Plug-In . SVG Version: 6.00 Build 0)  -->
<svg version="1.1" id="Layer_1" xmlns="http://www.w3.org/2000/svg" xmlns:xlink="http://www.w3.org/1999/xlink" x="0px" y="0px"
	 viewBox="0 0 718.626 416.291" style="enable-background:new 0 0 718.626 416.291;" xml:space="preserve">
<path style="fill:#548F9C;" d="M534.457,99.526V24.994c0-3.501-1.709-6.836-4.475-8.87c-2.848-2.034-6.509-2.683-9.845-1.627
	L298.084,85.044c-4.557,1.462-7.65,5.696-7.65,10.493v217.337c-11.638-8.056-26.525-12.45-42.151-12.45
	c-16.514,0-32.221,4.962-44.179,13.913c-12.858,9.684-19.935,22.783-19.935,37.022c0,14.239,7.077,27.339,19.935,37.022
	c11.959,8.95,27.584,13.913,44.179,13.913c16.6,0,32.225-4.962,44.185-13.913c12.857-9.684,19.935-22.783,19.935-37.022V178.211
	l200.085-63.632V242c-11.638-8.052-26.526-12.446-42.151-12.446c-16.515,0-32.221,4.962-44.181,13.913
	c-12.857,9.684-19.935,22.783-19.935,37.022s7.078,27.339,19.935,37.022c11.96,8.95,27.58,13.913,44.181,13.913
	c16.6,0,32.221-4.962,44.185-13.913c12.853-9.684,19.935-22.783,19.935-37.022V99.606C534.457,99.526,534.457,99.526,534.457,99.526
	L534.457,99.526z M248.283,380.325c-22.863,0-42.145-13.26-42.145-28.966c0-15.702,19.282-28.966,42.145-28.966
	c22.868,0,42.151,13.264,42.151,28.966C290.434,367.146,271.151,380.325,248.283,380.325L248.283,380.325z M312.403,155.101v-51.587
	l200.085-63.547v51.587L312.403,155.101z M470.418,309.455c-22.863,0-42.145-13.261-42.145-28.966
	c0-15.706,19.282-28.966,42.145-28.966c22.868,0,42.151,13.26,42.151,28.966C512.488,296.194,493.201,309.455,470.418,309.455
	L470.418,309.455z M470.418,309.455"/>
</svg>
