<?xml version="1.0" encoding="iso-8859-1"?>
<!-- Generator: Adobe Illustrator 23.0.2, SVG Export Plug-In . SVG Version: 6.00 Build 0)  -->
<svg version="1.1" id="Layer_1" xmlns="http://www.w3.org/2000/svg" xmlns:xlink="http://www.w3.org/1999/xlink" x="0px" y="0px"
	 viewBox="0 0 718.626 416.291" style="enable-background:new 0 0 718.626 416.291;" xml:space="preserve">
<g>
	<path style="fill:#548F9C;" d="M564.194,382.32h-19.093L374.448,115.646l37.02-57.85c3.794-5.933,2.068-13.819-3.865-17.618
		c-5.934-3.789-13.82-2.063-17.618,3.87l-17.84,27.882V21.219c0-7.04-5.707-12.752-12.752-12.752
		c-7.04,0-12.752,5.712-12.752,12.752v50.706l-17.839-27.877c-3.8-5.933-11.685-7.664-17.618-3.87
		c-5.928,3.799-7.66,11.685-3.865,17.614l37.02,57.854L173.683,382.32h-19.251c-7.045,0-12.752,5.707-12.752,12.752
		c0,7.04,5.707,12.752,12.752,12.752h409.762c7.045,0,12.752-5.712,12.752-12.752C576.946,388.027,571.239,382.32,564.194,382.32
		L564.194,382.32z M359.392,139.436L514.824,382.32h-33.685L377.621,220.561c-4.016-6.274-10.861-10.02-18.308-10.02
		c-7.447,0-14.292,3.746-18.308,10.02L237.487,382.32h-33.522L359.392,139.436z M372.065,259.193l78.632,122.879h-78.632V259.193z
		 M346.561,382.071h-78.632l78.632-122.879V382.071z M346.561,382.071"/>
</g>
</svg>
