<?xml version="1.0" encoding="iso-8859-1"?>
<!-- Generator: Adobe Illustrator 23.0.2, SVG Export Plug-In . SVG Version: 6.00 Build 0)  -->
<svg version="1.1" id="Layer_1" xmlns="http://www.w3.org/2000/svg" xmlns:xlink="http://www.w3.org/1999/xlink" x="0px" y="0px"
	 viewBox="0 0 718.626 416.291" style="enable-background:new 0 0 718.626 416.291;" xml:space="preserve">
<g>
	<path style="fill:#548F9C;" d="M429.039,192.974c0,4.188-3.397,7.585-7.585,7.585c-4.191,0-7.585-3.397-7.585-7.585
		s3.394-7.585,7.585-7.585C425.642,185.389,429.039,188.786,429.039,192.974L429.039,192.974z M429.039,192.974"/>
	<path style="fill:#548F9C;" d="M422.755,225.477c-4.141-0.617-8.001,2.247-8.613,6.392c-2.074,13.998-13.907,25.608-31.654,31.057
		c-18.972,5.828-45.299,3.872-61.363-13.618c-2.833-3.086-7.633-3.287-10.715-0.458c-3.085,2.837-3.29,7.633-0.458,10.719
		c9.301,10.125,21.927,17.028,36.521,19.959c5.155,1.036,10.501,1.548,15.882,1.548c8.313,0,16.707-1.225,24.585-3.646
		c23.475-7.206,39.255-23.409,42.206-43.34C429.762,229.946,426.898,226.089,422.755,225.477L422.755,225.477z M422.755,225.477"/>
	<path style="fill:#548F9C;" d="M528.184,158.394c-13.788-15.985-32.816-26.348-55.722-30.508
		c21.931-14.8,40.847-29.529,54.331-42.38c20.564-19.596,27.461-33.364,21.701-43.328c-6.404-11.101-24.897-11.026-58.203,0.242
		c-28.141,9.521-63.196,26.054-98.71,46.559c-6.131,3.54-12.212,7.167-18.154,10.817c-4.413-12.452-1.501-26.675,8.226-39.009
		c7.289-9.241,8.916-20.975,4.247-30.626c-4.891-10.118-15.629-16.175-28.742-16.203h-0.355c-46.275,0-91.539,18.261-127.452,51.415
		c-35.956,33.194-57.969,77.138-61.983,123.734c-4.832,56.116,13.109,109.467,50.506,150.227
		c36.742,40.037,88.825,62.999,142.903,62.999c29.113,0,56.445-5.326,81.232-15.834c22.665-9.604,42.79-23.322,59.822-40.772
		c15.791-16.178,28.24-34.802,37.003-55.358c8.34-19.556,12.895-40.286,13.179-59.937
		C552.426,201.851,544.184,176.942,528.184,158.394L528.184,158.394z M374.314,117.112c8.028-5.065,16.392-10.11,24.854-14.997
		c32.835-18.956,65.531-34.573,92.069-43.968c29.211-10.343,41.171-9.667,43.959-8.332c-0.241,1.766-2.433,9.62-21.602,27.272
		c-16.008,14.74-39.382,32.076-65.819,48.812c-8.356,5.29-17.055,10.552-25.85,15.629c-12.125,7.001-24.241,13.543-36.133,19.536
		c-2.371-6.925-5.413-13.646-9.115-20.058c-3.587-6.21-7.747-12.046-12.398-17.442C367.57,121.406,370.921,119.249,374.314,117.112
		L374.314,117.112z M372.05,167.793c-21.421,10.157-41.077,17.901-56.768,22.392c-0.818-3.923-2.256-7.716-4.294-11.248
		c-1.932-3.35-4.354-6.344-7.155-8.925c11.749-11.343,28.287-24.479,47.76-37.919c4.52,5.053,8.53,10.58,11.948,16.498
		C367.072,154.711,369.916,161.151,372.05,167.793L372.05,167.793z M536.844,230.214c-1.082,75.479-68.703,156.948-176.065,156.948
		c-49.838,0-97.848-21.172-131.722-58.084c-34.495-37.591-51.032-86.837-46.572-138.667c7.66-88.932,85.858-161.282,174.32-161.282
		h0.339c7.258,0.016,12.762,2.798,15.1,7.633c2.149,4.448,1.217,9.917-2.501,14.63c-13.669,17.331-17.099,38.65-9.375,56.622
		c-4.066,2.62-8.064,5.251-11.927,7.863c-0.016,0.011-0.035,0.023-0.052,0.035C324.266,132.188,303.9,148.378,290.348,162
		c-10.28-3.513-21.575-2.489-31.171,3.054c-15.76,9.103-36.454,51.521-40.44,59.936c-1.071,2.248-0.96,4.883,0.284,7.04
		c1.245,2.157,3.473,3.568,5.954,3.769c4.195,0.34,16.099,1.196,29.35,1.196c16.08,0,34.139-1.264,42.779-6.253
		c9.359-5.405,15.847-14.429,18.095-24.807c18.6-4.883,42.905-14.436,69.229-27.26c14.748-7.178,29.915-15.254,45.082-24.008
		c7.697-4.445,15.301-9.024,22.694-13.646c0.048,0.004,0.091,0.012,0.135,0.012C515.561,142.848,537.445,188.289,536.844,230.214
		L536.844,230.214z M300.861,199.323c-0.485,7.629-4.725,14.464-11.343,18.281c-7.175,4.144-31.815,4.705-52.051,3.777
		c9.312-17.98,22.117-39.042,29.295-43.19c6.779-3.911,14.978-4.085,21.931-0.454c3.824,1.986,6.989,5.025,9.154,8.782
		C300.103,190.423,301.142,194.85,300.861,199.323L300.861,199.323z M300.861,199.323"/>
	<path style="fill:#548F9C;" d="M300.087,60.865c-16.731,0-30.342,13.614-30.342,30.342c0,16.731,13.61,30.342,30.342,30.342
		s30.342-13.61,30.342-30.342C330.428,74.48,316.818,60.865,300.087,60.865L300.087,60.865z M300.087,106.378
		c-8.363,0-15.171-6.804-15.171-15.171c0-8.364,6.808-15.171,15.171-15.171c8.364,0,15.171,6.807,15.171,15.171
		C315.258,99.574,308.451,106.378,300.087,106.378L300.087,106.378z M300.087,106.378"/>
	<path style="fill:#548F9C;" d="M262.159,264.696c-16.731,0-30.342,13.61-30.342,30.342c0,16.727,13.61,30.342,30.342,30.342
		s30.342-13.614,30.342-30.342C292.501,278.307,278.891,264.696,262.159,264.696L262.159,264.696z M262.159,310.209
		c-8.363,0-15.171-6.807-15.171-15.171c0-8.367,6.808-15.171,15.171-15.171c8.364,0,15.171,6.804,15.171,15.171
		C277.33,303.402,270.524,310.209,262.159,310.209L262.159,310.209z M262.159,310.209"/>
	<path style="fill:#548F9C;" d="M338.014,310.209c-16.731,0-30.342,13.61-30.342,30.342c0,16.727,13.61,30.342,30.342,30.342
		s30.342-13.614,30.342-30.342C368.356,323.819,354.745,310.209,338.014,310.209L338.014,310.209z M338.014,355.722
		c-8.363,0-15.171-6.807-15.171-15.171c0-8.367,6.808-15.171,15.171-15.171c8.364,0,15.171,6.804,15.171,15.171
		C353.185,348.915,346.378,355.722,338.014,355.722L338.014,355.722z M338.014,355.722"/>
	<path style="fill:#548F9C;" d="M429.039,295.038c-16.731,0-30.342,13.61-30.342,30.342c0,16.727,13.61,30.342,30.342,30.342
		c16.732,0,30.342-13.614,30.342-30.342C459.381,308.648,445.771,295.038,429.039,295.038L429.039,295.038z M429.039,340.551
		c-8.363,0-15.171-6.807-15.171-15.171c0-8.367,6.808-15.171,15.171-15.171c8.364,0,15.171,6.804,15.171,15.171
		C444.21,333.744,437.404,340.551,429.039,340.551L429.039,340.551z M429.039,340.551"/>
	<path style="fill:#548F9C;" d="M489.723,219.184c-16.732,0-30.342,13.61-30.342,30.342c0,16.727,13.61,30.342,30.342,30.342
		c16.731,0,30.342-13.614,30.342-30.342C520.065,232.794,506.454,219.184,489.723,219.184L489.723,219.184z M489.723,264.696
		c-8.363,0-15.171-6.807-15.171-15.171c0-8.367,6.808-15.171,15.171-15.171c8.364,0,15.171,6.804,15.171,15.171
		C504.894,257.89,498.087,264.696,489.723,264.696L489.723,264.696z M489.723,264.696"/>
</g>
</svg>
