<?xml version="1.0" encoding="iso-8859-1"?>
<!-- Generator: Adobe Illustrator 23.0.2, SVG Export Plug-In . SVG Version: 6.00 Build 0)  -->
<svg version="1.1" id="Layer_1" xmlns="http://www.w3.org/2000/svg" xmlns:xlink="http://www.w3.org/1999/xlink" x="0px" y="0px"
	 viewBox="0 0 718.626 416.291" style="enable-background:new 0 0 718.626 416.291;" xml:space="preserve">
<g>
	<path style="fill:#548F9C;" d="M677.953,148.977c-6.793-8.245-16.435-12.901-26.378-12.901h-14.928v-12.093
		c0-21.666-18.831-39.265-41.936-39.265h-19.694v-22.31c0-10.422-4.493-20.639-12.257-28.035c-15.449-14.6-42.21-14.6-57.659,0
		c-7.765,7.396-12.257,17.613-12.257,28.09v104.428H225.781V62.463c0-10.477-4.437-20.694-12.257-28.09
		c-15.449-14.6-42.21-14.6-57.659,0c-7.765,7.396-12.257,17.613-12.257,28.09v22.255h-22.091c-10.381,0-20.173,3.753-27.665,10.546
		c-7.547,6.957-11.874,16.64-11.874,26.528v14.284H67.214c-10.011,0-19.694,4.711-26.542,12.901
		c-6.464,7.806-10.052,18.078-10.052,28.884v60.192c0,10.805,3.588,21.077,10.107,28.884c6.848,8.19,16.476,12.942,26.487,12.942
		h14.764v14.23c0,9.957,4.327,19.585,11.928,26.542c7.437,6.793,17.229,10.587,27.611,10.587h22.091v22.255
		c0,10.436,4.492,20.653,12.257,28.035c7.697,7.272,17.968,11.34,28.829,11.34c10.861,0,21.132-4.068,28.829-11.34
		c7.82-7.382,12.257-17.598,12.257-28.035V249.064h267.063v104.428c0,10.436,4.492,20.653,12.257,28.035
		c7.697,7.272,17.968,11.34,28.829,11.34c10.861,0,21.132-4.068,28.829-11.34c7.765-7.382,12.257-17.598,12.257-28.035v-22.255
		h19.694c23.105,0,41.936-17.654,41.936-39.319v-12.039h14.928c9.943,0,19.585-4.697,26.378-12.887
		c6.464-7.807,10.053-18.037,10.053-28.788v-60.507C688.006,166.946,684.417,156.729,677.953,148.977L677.953,148.977z
		 M67.214,259.336c-3.958,0-7.765-1.972-10.696-5.56c-3.424-4.067-5.355-9.792-5.355-15.722v-60.192
		c0-5.944,1.931-11.655,5.355-15.722c2.931-3.589,6.738-5.52,10.696-5.52h14.764v102.717H67.214z M121.517,310.694
		c-5.136,0-10.162-1.917-13.75-5.191c-3.369-3.095-5.245-7.108-5.245-11.395V121.792c0-4.218,1.876-8.286,5.245-11.395
		c3.588-3.259,8.614-5.136,13.75-5.136h22.091v205.433H121.517z M205.238,353.493c0,4.931-2.082,9.573-5.779,13.107
		c-7.697,7.286-21.776,7.286-29.473,0c-3.753-3.534-5.834-8.232-5.834-13.107V62.408c0-4.862,2.081-9.518,5.779-13.106
		c3.849-3.575,9.258-5.67,14.764-5.67c5.506,0,10.915,2.096,14.764,5.67c3.698,3.588,5.779,8.245,5.779,13.161V353.493z
		 M225.781,228.521v-41.087h267.063v41.087H225.781z M554.474,353.493c0,4.931-2.082,9.573-5.779,13.107
		c-7.697,7.286-21.776,7.286-29.473,0c-3.753-3.534-5.834-8.232-5.834-13.107V62.463c0-4.917,2.081-9.574,5.779-13.107
		c3.849-3.629,9.259-5.725,14.764-5.725c5.506,0,10.915,2.096,14.764,5.725c3.698,3.533,5.779,8.19,5.779,13.107V353.493z
		 M616.104,291.918c0,10.326-9.573,18.776-21.393,18.776h-19.694V105.261h19.694c11.764,0,21.393,8.409,21.393,18.722V291.918z
		 M667.463,238.204c0,5.889-1.931,11.559-5.3,15.626c-2.944,3.533-6.684,5.505-10.587,5.505h-14.928V156.619h14.928
		c3.903,0,7.643,1.931,10.587,5.465c3.369,4.068,5.3,9.737,5.3,15.613V238.204z M667.463,238.204"/>
</g>
</svg>
