<?xml version="1.0" encoding="iso-8859-1"?>
<!-- Generator: Adobe Illustrator 23.0.2, SVG Export Plug-In . SVG Version: 6.00 Build 0)  -->
<svg version="1.1" id="Layer_1" xmlns="http://www.w3.org/2000/svg" xmlns:xlink="http://www.w3.org/1999/xlink" x="0px" y="0px"
	 viewBox="0 0 718.626 416.291" style="enable-background:new 0 0 718.626 416.291;" xml:space="preserve">
<g>
	<path style="fill:#548F9C;" d="M551.317,80.143h-92.446V51.698c-0.024-19.629-15.927-35.532-35.556-35.556H295.312
		c-19.629,0.024-35.532,15.927-35.556,35.556v28.445h-92.446c-11.782,0-21.334,9.552-21.334,21.334v158.295
		c0.045,9.021,5.729,17.046,14.222,20.077v98.967c0,11.782,9.552,21.334,21.334,21.334h355.563c11.782,0,21.334-9.552,21.334-21.334
		v-98.96c8.494-3.035,14.181-11.062,14.223-20.084V101.476C572.651,89.695,563.099,80.143,551.317,80.143L551.317,80.143z
		 M273.978,51.698c0-11.782,9.552-21.334,21.334-21.334h128.003c11.782,0,21.334,9.552,21.334,21.334v28.445h-14.223V51.698
		c0-3.927-3.184-7.111-7.111-7.111H295.312c-3.927,0-7.111,3.184-7.111,7.111v28.445h-14.223V51.698z M416.203,80.143h-113.78
		V58.809h113.78V80.143z M544.206,378.815c0,3.927-3.184,7.111-7.111,7.111H181.531c-3.927,0-7.111-3.184-7.111-7.111v-96.523
		l156.448,21.577v18.055c0,11.782,9.552,21.334,21.334,21.334h14.223c11.782,0,21.334-9.552,21.334-21.334V303.87l156.448-21.577
		V378.815z M373.535,321.925c0,3.927-3.184,7.111-7.111,7.111h-14.223c-3.927,0-7.111-3.184-7.111-7.111v-42.668
		c0-3.927,3.184-7.111,7.111-7.111h14.223c3.927,0,7.111,3.184,7.111,7.111V321.925z M558.428,259.771
		c0.004,3.545-2.604,6.552-6.115,7.049l-1.972,0.27l-162.583,22.421v-10.254c0-11.782-9.552-21.334-21.334-21.334h-14.223
		c-11.782,0-21.334,9.552-21.334,21.334v10.254L166.32,266.82c-3.51-0.493-6.125-3.501-6.122-7.049V101.476
		c0-3.927,3.184-7.111,7.111-7.111h384.008c3.927,0,7.111,3.184,7.111,7.111V259.771z M558.428,259.771"/>
</g>
</svg>
