<?xml version="1.0" encoding="iso-8859-1"?>
<!-- Generator: Adobe Illustrator 23.0.2, SVG Export Plug-In . SVG Version: 6.00 Build 0)  -->
<svg version="1.1" id="Layer_1" xmlns="http://www.w3.org/2000/svg" xmlns:xlink="http://www.w3.org/1999/xlink" x="0px" y="0px"
	 viewBox="0 0 718.626 416.291" style="enable-background:new 0 0 718.626 416.291;" xml:space="preserve">
<g transform="translate(0 -1)">
	<path style="fill:#548F9C;" d="M187.68,271.359c3.521,7.765,8.416,14.829,14.449,20.853l41.014,41.014
		c-2.312,2.448-3.603,5.686-3.609,9.053v53.235c0.007,7.347,5.962,13.301,13.309,13.309h73.198
		c7.347-0.007,13.301-5.962,13.309-13.309v-46.581h39.926v46.581c0.007,7.347,5.962,13.301,13.309,13.309h73.198
		c7.347-0.007,13.301-5.962,13.309-13.309V342.28c-0.007-3.367-1.298-6.605-3.609-9.053l41.014-41.014
		c6.033-6.024,10.928-13.089,14.449-20.853l26.079-57.371c3.161-6.95,2.344-15.063-2.14-21.243
		c-4.484-6.18-11.943-9.473-19.531-8.624c-7.588,0.85-14.134,5.711-17.14,12.73l-5.847,13.641
		c-4.288-68.713-43.974-103.172-61.769-115.248c14.616-14.153,19.179-35.761,11.532-54.615
		c-7.647-18.854-25.972-31.179-46.318-31.152c-20.345,0.027-38.638,12.401-46.235,31.275s-2.977,40.47,11.677,54.584
		c-7.909,5.386-15.201,11.627-21.741,18.612c-6.603-7.053-13.973-13.347-21.973-18.764c14.596-14.18,19.122-35.801,11.44-54.646
		c-7.682-18.844-26.035-31.138-46.385-31.071c-20.35,0.067-38.622,12.481-46.18,31.375c-7.559,18.894-2.891,40.485,11.798,54.569
		c-17.991,12.278-57.588,46.986-61.57,115.97l-6.225-14.527c-3.004-7.021-9.551-11.886-17.14-12.737
		c-7.589-0.851-15.051,2.442-19.536,8.623s-5.302,14.296-2.139,21.247L187.68,271.359z M252.843,395.515V342.28h73.198l0.01,53.235
		H252.843z M325.778,310.311c0.133-0.424,0.221-0.861,0.263-1.304c0-0.4,0.211-40.138,18.449-62.317
		c1.515-1.836,1.934-4.341,1.099-6.57c-0.835-2.229-2.797-3.843-5.145-4.231c-2.348-0.389-4.726,0.506-6.235,2.348
		c-9.208,12.241-15.41,26.474-18.107,41.552c-1.398-2.363-2.95-4.631-4.648-6.789c-1.641-2.045-3.419-3.977-5.321-5.783
		c0.503-39.547,16.411-59.954,24.654-67.861c16.755,13.114,40.293,13.114,57.048,0c8.243,7.907,24.151,28.313,24.654,67.861
		c-1.902,1.805-3.68,3.737-5.321,5.783c-1.698,2.158-3.25,4.426-4.648,6.789c-2.696-15.078-8.899-29.311-18.106-41.552
		c-2.337-2.831-6.525-3.236-9.36-0.904c-2.835,2.332-3.247,6.519-0.92,9.359c18.18,22.108,18.45,61.924,18.45,62.323
		c0.043,0.44,0.131,0.874,0.264,1.295c-0.17,2.074-0.264,4.166-0.264,6.275v12.386c-4.733,0.015-9.1,2.551-11.458,6.654H337.5
		c-2.358-4.104-6.725-6.64-11.458-6.654v-12.386C326.042,314.476,325.948,312.385,325.778,310.311z M359.314,129.339
		c18.376,0,33.272,14.896,33.272,33.272s-14.896,33.272-33.272,33.272c-18.376,0-33.272-14.896-33.272-33.272
		C326.063,144.245,340.947,129.361,359.314,129.339z M465.784,395.515h-73.198V342.28h73.198V395.515z M530.446,202.092
		c1.242-2.909,4.102-4.796,7.265-4.793c2.689,0.001,5.194,1.368,6.649,3.629c1.456,2.261,1.663,5.107,0.551,7.555l-26.078,57.371
		c-2.865,6.31-6.844,12.051-11.746,16.948l-46.168,46.168h-55.025v-12.386c-0.203-12.738,3.909-25.169,11.668-35.273
		c4.068-5.423,9.626-9.545,15.996-11.863c13.085-5.142,25.223-12.424,35.918-21.549c0.325-0.214,0.63-0.457,0.911-0.726
		c1.849-1.477,3.721-3.003,5.632-4.612c6.217-5.166,15.183-5.339,21.594-0.416c-2.41,3.614-5.171,6.98-8.243,10.05l-30.4,30.4
		c-1.681,1.681-2.337,4.131-1.722,6.427c0.615,2.296,2.409,4.09,4.705,4.705c2.296,0.615,4.746-0.041,6.427-1.722l30.4-30.4
		c7.128-7.114,12.825-15.528,16.782-24.788L530.446,202.092z M379.277,59.468c0-20.213,16.386-36.599,36.599-36.599
		s36.599,16.386,36.599,36.599s-16.386,36.599-36.599,36.599C395.672,96.045,379.299,79.672,379.277,59.468z M415.876,109.376
		c8.105,0.003,16.086-1.981,23.246-5.779c12.689,7.292,62.556,41.341,60.258,124.349c-8.21-3.576-17.569-3.4-25.639,0.48
		c-0.238-25.765-5.38-51.249-15.151-75.091c-0.934-2.189-2.966-3.713-5.329-3.996c-2.363-0.283-4.697,0.718-6.122,2.625
		c-1.424,1.907-1.721,4.429-0.779,6.615c0.187,0.438,18.194,43.168,13.188,80.168c-9.05,7.579-19.242,13.68-30.198,18.075
		c-1.323,0.441-2.583,1.064-3.861,1.638c-2.558-38.444-18.605-59.371-28.405-68.696c8.69-12.017,11.119-27.462,6.538-41.566
		s-15.622-25.174-29.714-29.792c5.779-5.567,12.147-10.489,18.99-14.68C399.989,107.437,407.873,109.376,415.876,109.376z
		 M266.152,59.468c0-20.213,16.386-36.599,36.599-36.599c20.213,0,36.599,16.386,36.599,36.599s-16.386,36.599-36.599,36.599
		C282.548,96.045,266.175,79.672,266.152,59.468z M279.74,103.71c14.478,7.587,31.766,7.553,46.214-0.092
		c6.866,4.188,13.254,9.111,19.053,14.683c-14.174,4.545-25.312,15.606-29.955,29.748c-4.643,14.142-2.23,29.653,6.491,41.715
		c-9.8,9.324-25.846,30.253-28.404,68.696c-1.278-0.574-2.54-1.197-3.864-1.639c-10.954-4.396-21.145-10.496-30.194-18.075
		c-4.989-36.918,13.004-79.733,13.191-80.171c1.43-3.374-0.138-7.27-3.506-8.713c-3.369-1.443-7.27,0.109-8.727,3.472
		c-9.77,23.843-14.912,49.327-15.15,75.093c-7.939-3.79-17.124-3.981-25.213-0.524C217.404,145.337,266.75,111.229,279.74,103.71z
		 M174.268,200.926c1.437-2.28,3.953-3.652,6.648-3.626c3.165-0.002,6.026,1.885,7.268,4.796l14.881,34.721
		c3.958,9.26,9.655,17.675,16.782,24.788l30.4,30.4c1.681,1.681,4.131,2.337,6.427,1.722c2.296-0.615,4.09-2.409,4.705-4.705
		s-0.041-4.746-1.722-6.427l-30.399-30.4c-3.055-3.052-5.801-6.398-8.201-9.988c6.385-4.929,15.332-4.782,21.552,0.354
		c1.91,1.608,3.781,3.133,5.629,4.609c0.283,0.271,0.591,0.516,0.918,0.732c10.693,9.123,22.829,16.404,35.91,21.546
		c6.372,2.317,11.931,6.439,15.999,11.863c7.759,10.104,11.871,22.536,11.668,35.273v12.386h-55.025l-46.168-46.168
		c-4.902-4.897-8.881-10.638-11.746-16.948l-26.078-57.371C172.578,206.039,172.787,203.179,174.268,200.926L174.268,200.926z"/>
	<path style="fill:#548F9C;" d="M312.733,362.243h-6.654c-3.675,0-6.654,2.979-6.654,6.654s2.979,6.654,6.654,6.654h6.654
		c3.675,0,6.654-2.979,6.654-6.654S316.408,362.243,312.733,362.243z"/>
	<path style="fill:#548F9C;" d="M412.549,362.243h-6.654c-3.675,0-6.654,2.979-6.654,6.654s2.979,6.654,6.654,6.654h6.654
		c3.675,0,6.654-2.979,6.654-6.654S416.224,362.243,412.549,362.243z"/>
</g>
</svg>
