<?xml version="1.0" encoding="iso-8859-1"?>
<!-- Generator: Adobe Illustrator 23.0.2, SVG Export Plug-In . SVG Version: 6.00 Build 0)  -->
<svg version="1.1" id="Layer_1" xmlns="http://www.w3.org/2000/svg" xmlns:xlink="http://www.w3.org/1999/xlink" x="0px" y="0px"
	 viewBox="0 0 718.626 416.291" style="enable-background:new 0 0 718.626 416.291;" xml:space="preserve">
<g>
	<path style="fill:#548F9C;" d="M542.635,23.423H259.324c-4.544,0-8.229,3.681-8.229,8.229V195.25h-75.11
		c-4.543,0-8.229,3.687-8.229,8.229v139.487c0,27.516,22.385,49.901,49.901,49.901c0.71,0,283.312,0,283.312,0
		c27.51,0,49.901-22.385,49.901-49.901V31.653C550.864,27.104,547.185,23.423,542.635,23.423L542.635,23.423z M184.215,342.966
		V211.708h66.88v131.258c0,18.441-15.001,33.442-33.444,33.442C199.216,376.409,184.215,361.407,184.215,342.966L184.215,342.966z
		 M534.406,342.966c0,18.441-15.001,33.442-33.442,33.442H254.66c8.007-8.853,12.893-20.59,12.893-33.442V39.882h266.852V342.966z
		 M534.406,342.966"/>
	<path style="fill:#548F9C;" d="M389.422,118.472h105.477c4.544,0,8.229-3.681,8.229-8.229c0-4.544-3.685-8.229-8.229-8.229H389.422
		c-4.544,0-8.229,3.685-8.229,8.229C381.193,114.791,384.878,118.472,389.422,118.472L389.422,118.472z M389.422,118.472"/>
	<path style="fill:#548F9C;" d="M389.422,208.88h105.477c4.544,0,8.229-3.687,8.229-8.231c0-4.548-3.685-8.228-8.229-8.228H389.422
		c-4.544,0-8.229,3.679-8.229,8.228C381.193,205.194,384.878,208.88,389.422,208.88L389.422,208.88z M389.422,208.88"/>
	<path style="fill:#548F9C;" d="M389.422,299.281h105.477c4.544,0,8.229-3.679,8.229-8.229c0-4.542-3.685-8.229-8.229-8.229H389.422
		c-4.544,0-8.229,3.687-8.229,8.229C381.193,295.602,384.878,299.281,389.422,299.281L389.422,299.281z M389.422,299.281"/>
	<path style="fill:#548F9C;" d="M313.483,127.736c1.561,1.646,3.72,2.576,5.984,2.576c0.023,0,0.045,0,0.069,0
		c2.291-0.022,4.469-0.988,6.011-2.68l45.205-49.508c3.064-3.359,2.824-8.566-0.531-11.629c-3.355-3.062-8.561-2.822-11.625,0.533
		l-39.232,42.964l-12.207-12.933c-3.126-3.303-8.332-3.451-11.635-0.332c-3.309,3.121-3.451,8.327-0.336,11.631L313.483,127.736z
		 M313.483,127.736"/>
	<path style="fill:#548F9C;" d="M358.595,161.361l-39.232,42.958l-12.213-12.927c-3.121-3.308-8.326-3.457-11.629-0.331
		c-3.309,3.121-3.451,8.326-0.336,11.629l18.298,19.373c1.561,1.646,3.72,2.578,5.984,2.578c0.023,0,0.045,0,0.069,0
		c2.291-0.018,4.469-0.989,6.011-2.68l45.205-49.502c3.064-3.36,2.824-8.566-0.531-11.629
		C366.866,157.767,361.659,158.001,358.595,161.361L358.595,161.361z M358.595,161.361"/>
	<path style="fill:#548F9C;" d="M358.595,255.69l-39.232,42.964l-12.213-12.927c-3.121-3.309-8.326-3.457-11.629-0.332
		c-3.309,3.121-3.451,8.327-0.336,11.631l18.298,19.373c1.561,1.646,3.72,2.576,5.984,2.576c0.023,0,0.045,0,0.069,0
		c2.291-0.016,4.469-0.988,6.011-2.68l45.205-49.506c3.064-3.355,2.824-8.561-0.531-11.625
		C366.866,252.1,361.659,252.336,358.595,255.69L358.595,255.69z M358.595,255.69"/>
</g>
</svg>
