<?xml version="1.0" encoding="iso-8859-1"?>
<!-- Generator: Adobe Illustrator 23.0.2, SVG Export Plug-In . SVG Version: 6.00 Build 0)  -->
<svg version="1.1" id="Layer_1" xmlns="http://www.w3.org/2000/svg" xmlns:xlink="http://www.w3.org/1999/xlink" x="0px" y="0px"
	 viewBox="0 0 718.626 416.291" style="enable-background:new 0 0 718.626 416.291;" xml:space="preserve">
<g>
	<path style="fill:#548F9C;" d="M500.384,66.98C462.64,29.236,412.576,8.467,359.213,8.467c-53.358,0-103.427,20.769-141.166,58.513
		c-72.949,72.943-78.015,189.713-12.581,268.489c-6.416,12.915-16.72,27.945-32,35.461c-7.343,3.627-11.481,11.481-10.215,19.586
		c1.266,8.104,7.515,14.436,15.62,15.703c3.799,0.594,9.204,1.183,15.786,1.183c17.647,0,43.654-4.138,70.25-23.302
		c29.634,15.958,62.056,23.724,94.223,23.724c51.669,0,102.837-20.008,141.338-58.513c37.738-37.738,58.507-87.808,58.507-141.166
		S538.122,104.718,500.384,66.98L500.384,66.98z M484.253,333.186c-56.991,56.991-145.22,68.305-214.62,27.523
		c-4.56-2.7-10.215-1.855-13.848,1.778c-0.339,0.167-0.673,0.422-0.928,0.672c-22.88,17.73-45.338,21.446-60.201,21.446h-0.083
		c17.142-12.498,27.945-31.073,34.278-45.509c1.017-2.45,1.183-4.983,0.594-7.343c-0.256-2.283-1.183-4.56-2.788-6.416
		c-61.801-69.827-58.596-176.21,7.432-242.232c68.977-68.983,181.187-68.983,250.081,0
		C553.236,152.082,553.236,264.208,484.253,333.186L484.253,333.186z M484.253,333.186"/>
	<path style="fill:#548F9C;" d="M373.227,208.145c0,7.739-6.275,14.014-14.014,14.014c-7.739,0-14.014-6.275-14.014-14.014
		s6.275-14.014,14.014-14.014C366.952,194.131,373.227,200.406,373.227,208.145L373.227,208.145z M373.227,208.145"/>
	<path style="fill:#548F9C;" d="M445.504,208.145c0,7.739-6.276,14.014-14.02,14.014c-7.739,0-14.014-6.275-14.014-14.014
		s6.275-14.014,14.014-14.014C439.228,194.131,445.504,200.406,445.504,208.145L445.504,208.145z M445.504,208.145"/>
	<path style="fill:#548F9C;" d="M300.956,208.145c0,7.739-6.275,14.014-14.014,14.014s-14.014-6.275-14.014-14.014
		s6.275-14.014,14.014-14.014S300.956,200.406,300.956,208.145L300.956,208.145z M300.956,208.145"/>
</g>
</svg>
