<?xml version="1.0" encoding="iso-8859-1"?>
<!-- Generator: Adobe Illustrator 23.0.2, SVG Export Plug-In . SVG Version: 6.00 Build 0)  -->
<svg version="1.1" id="Layer_1" xmlns="http://www.w3.org/2000/svg" xmlns:xlink="http://www.w3.org/1999/xlink" x="0px" y="0px"
	 viewBox="0 0 718.626 416.291" style="enable-background:new 0 0 718.626 416.291;" xml:space="preserve">
<g>
	<g>
		<path style="fill:#548F9C;" d="M208.265,402.294c-107.054,0-194.149-87.095-194.149-194.149
			c0-107.054,87.095-194.149,194.149-194.149c107.054,0,194.148,87.095,194.148,194.149c0,35.806-9.832,70.799-28.435,101.196
			c-1.44,2.355-4.518,3.099-6.874,1.655c-2.355-1.441-3.097-4.52-1.655-6.874c17.64-28.826,26.964-62.015,26.964-95.978
			c0-101.54-82.608-184.149-184.148-184.149c-101.541,0-184.149,82.609-184.149,184.149s82.609,184.149,184.149,184.149
			c25.844,0,50.837-5.249,74.283-15.601c22.649-10,42.778-24.254,59.827-42.366c1.891-2.011,5.057-2.107,7.067-0.214
			c2.011,1.893,2.107,5.057,0.214,7.067c-17.97,19.092-39.189,34.118-63.069,44.661C261.86,396.759,235.509,402.294,208.265,402.294
			z"/>
	</g>
	<g>
		<path style="fill:#548F9C;" d="M510.361,402.294c-107.054,0-194.149-87.095-194.149-194.149c0-36.126,10.004-71.394,28.93-101.989
			c1.453-2.348,4.534-3.074,6.883-1.622c2.349,1.453,3.075,4.534,1.622,6.883c-17.948,29.014-27.435,62.462-27.435,96.729
			c0,101.54,82.609,184.149,184.149,184.149s184.149-82.609,184.149-184.149S611.901,23.996,510.361,23.996
			c-50.914,0-98.293,20.319-133.408,57.215c-1.905,2-5.069,2.079-7.069,0.174c-2-1.903-2.078-5.068-0.175-7.069
			c17.947-18.857,39.087-33.691,62.831-44.092c24.583-10.769,50.767-16.229,77.821-16.229c107.055,0,194.149,87.095,194.149,194.149
			C704.511,315.2,617.416,402.294,510.361,402.294z"/>
	</g>
</g>
</svg>
