<?xml version="1.0" encoding="iso-8859-1"?>
<!-- Generator: Adobe Illustrator 23.0.2, SVG Export Plug-In . SVG Version: 6.00 Build 0)  -->
<svg version="1.1" id="Layer_1" xmlns="http://www.w3.org/2000/svg" xmlns:xlink="http://www.w3.org/1999/xlink" x="0px" y="0px"
	 viewBox="0 0 353.94 348.398" style="enable-background:new 0 0 353.94 348.398;" xml:space="preserve">
<g>
	<circle style="fill:#548F9C;" cx="176.97" cy="174.199" r="148.369"/>
</g>
<path style="fill:#FFFFFF;" d="M150.547,232.078c53.751,0,83.145-44.531,83.145-83.145c0-1.265-0.026-2.525-0.084-3.778
	c5.705-4.125,10.665-9.271,14.578-15.131c-5.236,2.326-10.871,3.894-16.782,4.6c6.033-3.617,10.665-9.342,12.85-16.165
	c-5.648,3.347-11.899,5.782-18.555,7.093c-5.333-5.68-12.927-9.233-21.331-9.233c-16.139,0-29.227,13.088-29.227,29.22
	c0,2.294,0.257,4.523,0.758,6.663c-24.286-1.221-45.823-12.85-60.234-30.531c-2.512,4.318-3.958,9.335-3.958,14.687
	c0,10.139,5.159,19.089,13.004,24.324c-4.793-0.147-9.297-1.465-13.235-3.656c-0.006,0.122-0.006,0.244-0.006,0.372
	c0,14.154,10.074,25.97,23.445,28.649c-2.454,0.668-5.037,1.028-7.703,1.028c-1.883,0-3.714-0.186-5.493-0.527
	c3.72,11.61,14.507,20.059,27.3,20.297c-10.004,7.838-22.603,12.509-36.294,12.509c-2.358,0-4.684-0.135-6.971-0.405
	C118.686,227.24,134.042,232.078,150.547,232.078"/>
</svg>
