<?xml version="1.0" encoding="iso-8859-1"?>
<!-- Generator: Adobe Illustrator 23.0.2, SVG Export Plug-In . SVG Version: 6.00 Build 0)  -->
<svg version="1.1" id="Layer_1" xmlns="http://www.w3.org/2000/svg" xmlns:xlink="http://www.w3.org/1999/xlink" x="0px" y="0px"
	 viewBox="0 0 353.94 348.398" style="enable-background:new 0 0 353.94 348.398;" xml:space="preserve">
<g>
	<circle style="fill:#548F9C;" cx="176.97" cy="174.199" r="148.369"/>
</g>
<g>
	<rect x="120.916" y="154.765" style="fill:#FFFFFF;" width="24.052" height="77.299"/>
	<path style="fill:#FFFFFF;" d="M132.947,144.193c-7.716,0-13.937-6.239-13.937-13.933c0-7.681,6.222-13.924,13.937-13.924
		c7.689,0,13.928,6.244,13.928,13.924C146.875,137.953,140.636,144.193,132.947,144.193z"/>
	<path style="fill:#FFFFFF;" d="M183.398,165.323c3.208-6.077,11.047-12.483,22.735-12.483c24.308,0,28.798,16.007,28.798,36.83
		v42.393h-24v-37.586c0-8.973-0.175-20.498-12.488-20.498c-12.497,0-14.403,9.759-14.403,19.839v38.245h-24v-77.299h23.024v10.559
		H183.398"/>
</g>
</svg>
