<?xml version="1.0" encoding="iso-8859-1"?>
<!-- Generator: Adobe Illustrator 23.0.2, SVG Export Plug-In . SVG Version: 6.00 Build 0)  -->
<svg version="1.1" id="Layer_1" xmlns="http://www.w3.org/2000/svg" xmlns:xlink="http://www.w3.org/1999/xlink" x="0px" y="0px"
	 viewBox="0 0 353.94 348.398" style="enable-background:new 0 0 353.94 348.398;" xml:space="preserve">
<g>
	<circle style="fill:#548F9C;" cx="176.97" cy="174.199" r="148.369"/>
</g>
<g>
	<path style="fill:#FFFFFF;" d="M176.97,113.381c19.808,0,22.154,0.076,29.977,0.432c7.233,0.33,11.161,1.538,13.775,2.554
		c3.463,1.346,5.934,2.953,8.53,5.549c2.596,2.596,4.204,5.067,5.549,8.53c1.016,2.614,2.224,6.542,2.554,13.775
		c0.357,7.823,0.432,10.169,0.432,29.977s-0.076,22.154-0.432,29.977c-0.33,7.233-1.538,11.161-2.554,13.775
		c-1.346,3.463-2.953,5.934-5.549,8.53c-2.596,2.596-5.067,4.204-8.53,5.549c-2.614,1.016-6.542,2.224-13.775,2.554
		c-7.821,0.357-10.167,0.432-29.977,0.432s-22.155-0.076-29.977-0.432c-7.233-0.33-11.161-1.538-13.775-2.554
		c-3.463-1.346-5.934-2.953-8.53-5.549c-2.596-2.596-4.204-5.067-5.549-8.53c-1.016-2.614-2.224-6.542-2.554-13.775
		c-0.357-7.823-0.432-10.169-0.432-29.977s0.076-22.154,0.432-29.977c0.33-7.233,1.538-11.161,2.554-13.775
		c1.346-3.463,2.953-5.934,5.549-8.53c2.596-2.596,5.067-4.204,8.53-5.549c2.614-1.016,6.542-2.224,13.775-2.554
		C154.816,113.457,157.162,113.381,176.97,113.381 M176.97,100.015c-20.147,0-22.674,0.085-30.586,0.446
		c-7.896,0.36-13.289,1.614-18.008,3.448c-4.878,1.896-9.015,4.432-13.14,8.557c-4.124,4.124-6.661,8.261-8.557,13.14
		c-1.834,4.719-3.088,10.111-3.448,18.008c-0.361,7.913-0.446,10.439-0.446,30.586c0,20.147,0.085,22.674,0.446,30.586
		c0.36,7.896,1.614,13.289,3.448,18.008c1.896,4.878,4.432,9.015,8.557,13.14c4.124,4.124,8.261,6.661,13.14,8.557
		c4.719,1.834,10.111,3.088,18.008,3.448c7.913,0.361,10.439,0.446,30.586,0.446s22.674-0.085,30.586-0.446
		c7.896-0.36,13.289-1.614,18.008-3.448c4.878-1.896,9.015-4.432,13.14-8.557c4.124-4.124,6.661-8.261,8.557-13.14
		c1.834-4.719,3.088-10.111,3.448-18.008c0.361-7.913,0.446-10.439,0.446-30.586s-0.085-22.674-0.446-30.586
		c-0.36-7.896-1.614-13.289-3.448-18.008c-1.896-4.878-4.432-9.015-8.557-13.14c-4.124-4.124-8.261-6.661-13.14-8.557
		c-4.719-1.834-10.111-3.088-18.008-3.448C199.644,100.1,197.117,100.015,176.97,100.015L176.97,100.015z"/>
	<path style="fill:#FFFFFF;" d="M176.97,136.104c-21.039,0-38.095,17.056-38.095,38.095s17.056,38.095,38.095,38.095
		s38.095-17.056,38.095-38.095S198.009,136.104,176.97,136.104z M176.97,198.927c-13.657,0-24.728-11.071-24.728-24.728
		c0-13.657,11.071-24.728,24.728-24.728s24.728,11.071,24.728,24.728C201.698,187.856,190.627,198.927,176.97,198.927z"/>
	<circle style="fill:#FFFFFF;" cx="216.57" cy="134.599" r="8.902"/>
</g>
</svg>
